<svg xmlns="http://www.w3.org/2000/svg" width="800" height="500" viewBox="0 0 800 500" fill="none">
  <rect width="800" height="500" rx="16" fill="#F8FAFF"/>
  <rect x="40" y="40" width="720" height="360" rx="12" fill="#fff" stroke="#E2E8F0"/>
  <rect x="40" y="40" width="160" height="360" rx="12" fill="#0F172A"/>
  <rect x="60" y="70" width="100" height="10" rx="5" fill="#64748B"/>
  <rect x="60" y="110" width="120" height="28" rx="6" fill="#2563EB"/>
  <rect x="60" y="150" width="100" height="10" rx="5" fill="#475569"/>
  <rect x="60" y="176" width="100" height="10" rx="5" fill="#475569"/>
  <rect x="60" y="202" width="100" height="10" rx="5" fill="#475569"/>
  <rect x="230" y="70" width="200" height="14" rx="7" fill="#0F172A"/>
  <rect x="230" y="100" width="320" height="10" rx="5" fill="#CBD5E1"/>
  <rect x="230" y="140" width="200" height="100" rx="10" fill="#EFF6FF"/>
  <rect x="450" y="140" width="200" height="100" rx="10" fill="#F1F5F9"/>
  <rect x="230" y="260" width="420" height="100" rx="10" fill="#F8FAFC" stroke="#E2E8F0"/>
  <text x="40" y="450" fill="#0F172A" font-family="system-ui,sans-serif" font-size="22" font-weight="700">Web &amp; Özel Yaz1l1m</text>
  <text x="40" y="478" fill="#64748B" font-family="system-ui,sans-serif" font-size="14">Paneller · Siteler · Entegrasyonlar</text>
</svg>
